<svg xmlns="http://www.w3.org/2000/svg" xmlns:xlink="http://www.w3.org/1999/xlink" width="87" height="20" viewBox="0 0 87 20">
    <defs>
        <rect id="a" width="39.918" height="20" rx="3.678"/>
        <linearGradient id="b" x1="28.898%" x2="55.322%" y1="23.96%" y2="76.271%">
            <stop offset="0%" stop-color="#F075B8"/>
            <stop offset="100%" stop-color="#DD60A3" stop-opacity=".532"/>
        </linearGradient>
        <linearGradient id="d" x1="68.309%" x2="36.452%" y1="30.658%" y2="69.342%">
            <stop offset="0%" stop-color="#FFF"/>
            <stop offset="100%" stop-color="#FFF" stop-opacity="0"/>
        </linearGradient>
        <linearGradient id="e" x1="86.697%" x2="14.247%" y1="65.668%" y2="32.176%">
            <stop offset="0%" stop-color="#DD5FA3"/>
            <stop offset="100%" stop-color="#DD5FA3" stop-opacity="0"/>
        </linearGradient>
    </defs>
    <g fill="none" fill-rule="evenodd">
        <path fill="#414146" d="M.306 4.538h3.528c.503 0 .97.08 1.4.24.431.16.799.38 1.104.662.304.281.544.618.718 1.01.174.394.261.828.261 1.303s-.087.909-.26 1.302c-.175.392-.415.73-.72 1.01-.304.282-.672.5-1.103.655-.43.155-.897.233-1.4.233h-1.67v3.592H.306V4.538zM2.164 9.44h1.408c.542 0 .983-.155 1.321-.465.339-.31.508-.718.508-1.222 0-.514-.169-.926-.508-1.237-.338-.31-.779-.465-1.32-.465H2.163V9.44zm6.692-2.167h1.858V8c.542-.601 1.137-.902 1.785-.902.107 0 .208.005.305.015.097.01.199.029.305.058v1.658a2.363 2.363 0 0 0-.653-.087c-.31 0-.617.08-.922.24-.305.16-.578.395-.82.705v4.858H8.856V7.273zm9.551 6.69c-.648.505-1.345.757-2.09.757-.339 0-.648-.053-.929-.16a2.199 2.199 0 0 1-.726-.444 2.026 2.026 0 0 1-.479-.683 2.18 2.18 0 0 1-.174-.88c0-.378.085-.725.254-1.04.17-.315.409-.585.719-.808.31-.223.677-.397 1.103-.523.425-.126.9-.19 1.422-.19a13.043 13.043 0 0 1 .9.03v-.335c0-.34-.126-.615-.377-.829-.252-.213-.58-.32-.987-.32-.378 0-.77.058-1.176.175-.406.116-.818.29-1.234.523V7.695a6.653 6.653 0 0 1 1.321-.451c.436-.097.871-.146 1.306-.146.446 0 .847.066 1.205.197.358.13.663.315.915.552.251.238.447.521.588.851.14.33.21.689.21 1.077v4.77h-1.77v-.581zm-2.57-1.672c0 .29.103.528.306.713.203.184.464.276.784.276.251 0 .505-.063.762-.19.256-.125.496-.3.718-.523v-1.425a7.345 7.345 0 0 0-.813-.044c-.522 0-.946.112-1.27.335-.324.223-.486.509-.486.858zm5.822-1.382c0-.562.092-1.076.275-1.542.184-.465.44-.865.77-1.2.329-.334.72-.596 1.176-.785.454-.19.958-.284 1.51-.284.725 0 1.455.17 2.19.51V9.28c-.638-.417-1.257-.625-1.857-.625a2.14 2.14 0 0 0-1.553.625 1.991 1.991 0 0 0-.45.713c-.107.28-.16.586-.16.916 0 .33.053.633.16.91.106.276.256.513.45.712.193.199.42.354.682.465.261.112.552.168.871.168.6 0 1.22-.209 1.858-.626v1.673c-.736.34-1.466.509-2.192.509a3.896 3.896 0 0 1-1.51-.284 3.528 3.528 0 0 1-1.175-.785 3.532 3.532 0 0 1-.77-1.207 4.178 4.178 0 0 1-.275-1.535zm9.885-3.636h2.09V8.77h-2.09v3.36c0 .3.096.548.29.742.194.194.45.29.77.29.3 0 .643-.096 1.03-.29v1.542a4.184 4.184 0 0 1-1.524.305 2.65 2.65 0 0 1-.98-.175 2.26 2.26 0 0 1-.762-.487 2.255 2.255 0 0 1-.5-.742 2.384 2.384 0 0 1-.182-.938V8.771h-1.249V7.273h1.249V5.222h1.858v2.05zm3.179 3.636c0-.562.091-1.076.275-1.542a3.492 3.492 0 0 1 1.96-1.985c.455-.19.958-.284 1.51-.284.551 0 1.054.095 1.51.284.454.189.846.45 1.175.785.329.335.585.735.77 1.2.183.466.275.98.275 1.542 0 .553-.092 1.064-.276 1.535-.184.47-.44.872-.77 1.207-.328.334-.72.596-1.175.785-.455.19-.958.284-1.51.284a3.896 3.896 0 0 1-1.51-.284 3.478 3.478 0 0 1-1.96-1.993 4.178 4.178 0 0 1-.274-1.534zm1.901 0c0 .34.046.647.138.924.092.276.218.511.377.705.16.194.354.347.581.458.227.112.477.168.748.168.27 0 .517-.056.74-.168.222-.111.414-.264.573-.458.16-.194.286-.429.378-.705.092-.277.137-.585.137-.924 0-.33-.045-.635-.137-.916a2.168 2.168 0 0 0-.378-.713 1.752 1.752 0 0 0-.573-.458 1.63 1.63 0 0 0-.74-.167c-.271 0-.52.055-.748.167a1.73 1.73 0 0 0-.58.458c-.16.194-.286.432-.378.713a2.933 2.933 0 0 0-.138.916z"/>
        <g transform="translate(47)">
            <mask id="c" fill="#fff">
                <use xlink:href="#a"/>
            </mask>
            <use fill="#B6499B" xlink:href="#a"/>
            <path fill="url(#b)" d="M23.95-1.655h17.738L52.891 20.69H34.22z" mask="url(#c)" opacity=".553"/>
            <path fill="url(#d)" d="M2.759-3.31H23.95l-8.71 14.896H3.678A3.678 3.678 0 0 1 0 7.908v-8.46A2.759 2.759 0 0 1 2.759-3.31z" mask="url(#c)" opacity=".2"/>
            <path fill="url(#e)" d="M-5.663-1.655h29.695L34.253 20.69H28.39z" mask="url(#c)" opacity=".599"/>
        </g>
        <path fill="#FFF" d="M52.297 5.577h3.122c.445 0 .859.07 1.24.212.38.142.706.337.976.586.27.249.482.547.636.895.154.347.231.731.231 1.152 0 .42-.077.804-.23 1.152a2.68 2.68 0 0 1-1.613 1.474 3.631 3.631 0 0 1-1.24.206h-1.477v3.18h-1.645V5.577zm1.645 4.338h1.246c.48 0 .87-.137 1.169-.412.3-.274.45-.635.45-1.081 0-.455-.15-.82-.45-1.094-.3-.275-.69-.412-1.17-.412h-1.245v3zm6.18-4.338h1.67v7.48h3.545v1.377h-5.216V5.577zm13.9 5.548c0 .507-.095.972-.283 1.397-.188.425-.45.79-.784 1.094a3.619 3.619 0 0 1-1.195.715 4.325 4.325 0 0 1-1.515.257 4.363 4.363 0 0 1-1.53-.257 3.619 3.619 0 0 1-1.194-.715 3.167 3.167 0 0 1-.777-1.094 3.475 3.475 0 0 1-.276-1.397V5.577h1.67v5.432c0 .318.053.608.16.87.107.261.253.489.437.682.184.193.405.343.662.45.257.107.54.161.848.161.308 0 .588-.054.841-.16a2.014 2.014 0 0 0 1.098-1.134c.103-.261.155-.551.155-.869V5.577h1.683v5.548zm1.888 1.313c.83.532 1.653.798 2.467.798.488 0 .884-.115 1.188-.347.304-.232.456-.537.456-.914 0-.3-.105-.539-.315-.715a2.81 2.81 0 0 0-.796-.45 16.927 16.927 0 0 0-1.034-.36 4.607 4.607 0 0 1-1.035-.47 2.592 2.592 0 0 1-.796-.76c-.21-.309-.315-.721-.315-1.236 0-.378.077-.723.231-1.036.155-.314.37-.584.65-.811a3.013 3.013 0 0 1 1.001-.528c.39-.125.816-.187 1.279-.187.788 0 1.58.163 2.376.49v1.531a4.977 4.977 0 0 0-1.137-.502 3.988 3.988 0 0 0-1.124-.167c-.47 0-.854.107-1.15.322a1.013 1.013 0 0 0-.443.862c0 .292.105.522.315.689.21.167.475.313.796.438.322.124.666.244 1.035.36.368.116.713.275 1.034.477.321.201.586.46.796.778.21.318.315.734.315 1.25a2.412 2.412 0 0 1-.9 1.904 3.1 3.1 0 0 1-1.014.541 4.158 4.158 0 0 1-1.298.193c-.428 0-.858-.05-1.29-.148a6.577 6.577 0 0 1-1.292-.444v-1.558z"/>
    </g>
</svg>
